# This file uses centimeters as units for non-parametric coordinates.

mtllib lightsaberBlade.mtl
g default
v 0.013718 0.110574 -0.004457
v 0.011670 0.110574 -0.008478
v 0.008478 0.110574 -0.011670
v 0.004457 0.110574 -0.013718
v 0.000000 0.110574 -0.014424
v -0.004457 0.110574 -0.013718
v -0.008478 0.110574 -0.011670
v -0.011670 0.110574 -0.008478
v -0.013718 0.110574 -0.004457
v -0.014424 0.110574 0.000000
v -0.013718 0.110574 0.004457
v -0.011670 0.110574 0.008478
v -0.008478 0.110574 0.011670
v -0.004457 0.110574 0.013718
v -0.000000 0.110574 0.014424
v 0.004457 0.110574 0.013718
v 0.008478 0.110574 0.011670
v 0.011670 0.110574 0.008478
v 0.013718 0.110574 0.004457
v 0.014424 0.110574 0.000000
v 0.005908 1.139819 -0.001920
v 0.005026 1.139819 -0.003652
v 0.003652 1.139819 -0.005026
v 0.001920 1.139819 -0.005908
v -0.000000 1.139819 -0.006212
v -0.001920 1.139819 -0.005908
v -0.003652 1.139819 -0.005026
v -0.005026 1.139819 -0.003652
v -0.005908 1.139819 -0.001920
v -0.006212 1.139819 -0.000000
v -0.005908 1.139819 0.001920
v -0.005026 1.139819 0.003652
v -0.003652 1.139819 0.005026
v -0.001920 1.139819 0.005908
v -0.000000 1.139819 0.006212
v 0.001920 1.139819 0.005908
v 0.003652 1.139819 0.005026
v 0.005026 1.139819 0.003652
v 0.005908 1.139819 0.001920
v 0.006212 1.139819 -0.000000
v -0.000000 1.142153 -0.000000
v 0.013718 1.118098 -0.004457
v 0.011670 1.118098 -0.008478
v 0.008478 1.118098 -0.011670
v 0.004457 1.118098 -0.013718
v 0.000000 1.118098 -0.014424
v -0.004457 1.118098 -0.013718
v -0.008478 1.118098 -0.011670
v -0.011670 1.118098 -0.008478
v -0.013718 1.118098 -0.004457
v -0.014424 1.118098 0.000000
v -0.013718 1.118098 0.004457
v -0.011670 1.118098 0.008478
v -0.008478 1.118098 0.011670
v -0.004457 1.118098 0.013718
v -0.000000 1.118098 0.014424
v 0.004457 1.118098 0.013718
v 0.008478 1.118098 0.011670
v 0.011670 1.118098 0.008478
v 0.013718 1.118098 0.004457
v 0.014424 1.118098 0.000000
v 0.011925 1.132219 -0.003875
v 0.012539 1.132219 -0.000000
v 0.011925 1.132219 0.003875
v 0.010144 1.132219 0.007370
v 0.007370 1.132219 0.010144
v 0.003875 1.132219 0.011925
v -0.000000 1.132219 0.012539
v -0.003875 1.132219 0.011925
v -0.007370 1.132219 0.010144
v -0.010144 1.132219 0.007370
v -0.011925 1.132219 0.003875
v -0.012539 1.132219 -0.000000
v -0.011925 1.132219 -0.003875
v -0.010144 1.132219 -0.007370
v -0.007370 1.132219 -0.010144
v -0.003875 1.132219 -0.011925
v -0.000000 1.132219 -0.012539
v 0.003875 1.132219 -0.011925
v 0.007370 1.132219 -0.010144
v 0.010144 1.132219 -0.007370
v 0.009216 1.136514 -0.002994
v 0.009690 1.136514 -0.000000
v 0.009216 1.136514 0.002994
v 0.007840 1.136514 0.005696
v 0.005696 1.136514 0.007840
v 0.002994 1.136514 0.009216
v -0.000000 1.136514 0.009690
v -0.002994 1.136514 0.009216
v -0.005696 1.136514 0.007840
v -0.007840 1.136514 0.005696
v -0.009216 1.136514 0.002994
v -0.009690 1.136514 -0.000000
v -0.009216 1.136514 -0.002994
v -0.007840 1.136514 -0.005696
v -0.005696 1.136514 -0.007840
v -0.002994 1.136514 -0.009216
v -0.000000 1.136514 -0.009690
v 0.002994 1.136514 -0.009216
v 0.005696 1.136514 -0.007840
v 0.007840 1.136514 -0.005696
v 0.013252 1.125158 -0.004306
v 0.011273 1.125158 -0.008190
v 0.008190 1.125158 -0.011273
v 0.004306 1.125158 -0.013252
v -0.000000 1.125158 -0.013934
v -0.004306 1.125158 -0.013252
v -0.008190 1.125158 -0.011273
v -0.011273 1.125158 -0.008190
v -0.013252 1.125158 -0.004306
v -0.013934 1.125158 -0.000000
v -0.013252 1.125158 0.004306
v -0.011273 1.125158 0.008190
v -0.008190 1.125158 0.011273
v -0.004306 1.125158 0.013252
v -0.000000 1.125158 0.013934
v 0.004306 1.125158 0.013252
v 0.008190 1.125158 0.011273
v 0.011273 1.125158 0.008190
v 0.013252 1.125158 0.004306
v 0.013934 1.125158 -0.000000
vt 0.375000 0.312500
vt 0.387500 0.312500
vt 0.400000 0.312500
vt 0.412500 0.312500
vt 0.425000 0.312500
vt 0.437500 0.312500
vt 0.450000 0.312500
vt 0.462500 0.312500
vt 0.475000 0.312500
vt 0.487500 0.312500
vt 0.500000 0.312500
vt 0.512500 0.312500
vt 0.525000 0.312500
vt 0.537500 0.312500
vt 0.550000 0.312500
vt 0.562500 0.312500
vt 0.575000 0.312500
vt 0.587500 0.312500
vt 0.600000 0.312500
vt 0.612500 0.312500
vt 0.625000 0.312500
vt 0.375000 0.688440
vt 0.387500 0.688440
vt 0.400000 0.688440
vt 0.412500 0.688440
vt 0.425000 0.688440
vt 0.437500 0.688440
vt 0.450000 0.688440
vt 0.462500 0.688440
vt 0.475000 0.688440
vt 0.487500 0.688440
vt 0.500000 0.688440
vt 0.512500 0.688440
vt 0.525000 0.688440
vt 0.537500 0.688440
vt 0.550000 0.688440
vt 0.562500 0.688440
vt 0.575000 0.688440
vt 0.587500 0.688440
vt 0.600000 0.688440
vt 0.612500 0.688440
vt 0.625000 0.688440
vt 0.648603 0.795466
vt 0.626409 0.751908
vt 0.591842 0.717341
vt 0.548284 0.695147
vt 0.500000 0.687500
vt 0.451716 0.695147
vt 0.408159 0.717341
vt 0.373591 0.751909
vt 0.351397 0.795466
vt 0.343750 0.843750
vt 0.351397 0.892034
vt 0.373591 0.935591
vt 0.408159 0.970159
vt 0.451716 0.992353
vt 0.500000 1.000000
vt 0.548284 0.992353
vt 0.591841 0.970159
vt 0.626409 0.935591
vt 0.648603 0.892034
vt 0.656250 0.843750
vt 0.500000 0.837500
vt 0.625000 0.677795
vt 0.375000 0.677795
vt 0.387500 0.677795
vt 0.400000 0.677795
vt 0.412500 0.677795
vt 0.425000 0.677795
vt 0.437500 0.677795
vt 0.450000 0.677795
vt 0.462500 0.677795
vt 0.475000 0.677795
vt 0.487500 0.677795
vt 0.500000 0.677795
vt 0.512500 0.677795
vt 0.525000 0.677795
vt 0.537500 0.677795
vt 0.550000 0.677795
vt 0.562500 0.677795
vt 0.575000 0.677795
vt 0.587500 0.677795
vt 0.600000 0.677795
vt 0.612500 0.677795
vt 0.625000 0.683118
vt 0.375000 0.683118
vt 0.612500 0.683118
vt 0.600000 0.683118
vt 0.587500 0.683118
vt 0.575000 0.683118
vt 0.562500 0.683118
vt 0.550000 0.683118
vt 0.537500 0.683118
vt 0.525000 0.683118
vt 0.512500 0.683118
vt 0.500000 0.683118
vt 0.487500 0.683118
vt 0.475000 0.683118
vt 0.462500 0.683118
vt 0.450000 0.683118
vt 0.437500 0.683118
vt 0.425000 0.683118
vt 0.412500 0.683118
vt 0.400000 0.683118
vt 0.387500 0.683118
vt 0.625000 0.685779
vt 0.375000 0.685779
vt 0.612500 0.685779
vt 0.600000 0.685779
vt 0.587500 0.685779
vt 0.575000 0.685779
vt 0.562500 0.685779
vt 0.550000 0.685779
vt 0.537500 0.685779
vt 0.525000 0.685779
vt 0.512500 0.685779
vt 0.500000 0.685779
vt 0.487500 0.685779
vt 0.475000 0.685779
vt 0.462500 0.685779
vt 0.450000 0.685779
vt 0.437500 0.685779
vt 0.425000 0.685779
vt 0.412500 0.685779
vt 0.400000 0.685779
vt 0.387500 0.685779
vt 0.625000 0.680457
vt 0.375000 0.680457
vt 0.387500 0.680457
vt 0.400000 0.680457
vt 0.412500 0.680457
vt 0.425000 0.680457
vt 0.437500 0.680457
vt 0.450000 0.680457
vt 0.462500 0.680457
vt 0.475000 0.680457
vt 0.487500 0.680457
vt 0.500000 0.680457
vt 0.512500 0.680457
vt 0.525000 0.680457
vt 0.537500 0.680457
vt 0.550000 0.680457
vt 0.562500 0.680457
vt 0.575000 0.680457
vt 0.587500 0.680457
vt 0.600000 0.680457
vt 0.612500 0.680457
vn 0.943692 0.124209 -0.306622
vn 0.802752 0.124209 -0.583234
vn 0.767135 0.317581 -0.557357
vn 0.901822 0.317581 -0.293017
vn 0.583233 0.124209 -0.802752
vn 0.557355 0.317580 -0.767136
vn 0.306623 0.124209 -0.943692
vn 0.293019 0.317581 -0.901822
vn -0.000000 0.124208 -0.992256
vn -0.000000 0.317581 -0.948231
vn -0.306624 0.124209 -0.943692
vn -0.293019 0.317581 -0.901821
vn -0.583234 0.124209 -0.802752
vn -0.557356 0.317581 -0.767136
vn -0.802752 0.124209 -0.583233
vn -0.767135 0.317581 -0.557357
vn -0.943692 0.124209 -0.306624
vn -0.901822 0.317581 -0.293019
vn -0.992256 0.124209 0.000000
vn -0.948231 0.317581 0.000001
vn -0.943692 0.124209 0.306624
vn -0.901821 0.317581 0.293019
vn -0.802751 0.124209 0.583234
vn -0.767135 0.317581 0.557357
vn -0.583233 0.124209 0.802753
vn -0.557355 0.317580 0.767137
vn -0.306624 0.124209 0.943692
vn -0.293019 0.317581 0.901822
vn 0.000000 0.124209 0.992256
vn 0.000000 0.317582 0.948231
vn 0.306624 0.124209 0.943691
vn 0.293020 0.317581 0.901821
vn 0.583234 0.124209 0.802752
vn 0.557355 0.317581 0.767136
vn 0.802752 0.124209 0.583234
vn 0.767135 0.317581 0.557357
vn 0.943692 0.124209 0.306624
vn 0.901821 0.317581 0.293020
vn 0.992256 0.124209 0.000001
vn 0.948231 0.317581 0.000001
vn 0.334522 0.936100 -0.108683
vn 0.284562 0.936102 -0.206731
vn -0.000000 1.000000 0.000002
vn 0.206746 0.936101 -0.284553
vn 0.108693 0.936103 -0.334509
vn 0.000000 0.936098 -0.351739
vn -0.108692 0.936095 -0.334532
vn -0.206746 0.936099 -0.284561
vn -0.284562 0.936102 -0.206731
vn -0.334521 0.936098 -0.108700
vn -0.351737 0.936099 0.000000
vn -0.334521 0.936098 0.108700
vn -0.284562 0.936102 0.206731
vn -0.206745 0.936096 0.284569
vn -0.108692 0.936095 0.334532
vn -0.000000 0.936099 0.351738
vn 0.108693 0.936098 0.334523
vn 0.206747 0.936103 0.284545
vn 0.284562 0.936102 0.206731
vn 0.334521 0.936098 0.108700
vn 0.351737 0.936099 -0.000000
vn 0.951057 0.000000 -0.309016
vn 0.809017 0.000000 -0.587785
vn 0.809017 0.000431 -0.587785
vn 0.951057 0.000431 -0.309016
vn 0.587785 0.000000 -0.809017
vn 0.587785 0.000431 -0.809017
vn 0.309017 0.000000 -0.951057
vn 0.309017 0.000431 -0.951056
vn -0.000000 0.000000 -1.000000
vn -0.000000 0.000431 -1.000000
vn -0.309017 0.000000 -0.951057
vn -0.309017 0.000431 -0.951056
vn -0.587785 0.000000 -0.809017
vn -0.587785 0.000431 -0.809017
vn -0.809017 0.000000 -0.587785
vn -0.809017 0.000431 -0.587785
vn -0.951057 0.000000 -0.309017
vn -0.951056 0.000431 -0.309017
vn -1.000000 -0.000000 0.000000
vn -1.000000 0.000431 0.000000
vn -0.951057 -0.000000 0.309017
vn -0.951056 0.000431 0.309017
vn -0.809017 0.000000 0.587785
vn -0.809017 0.000431 0.587785
vn -0.587785 0.000000 0.809017
vn -0.587785 0.000431 0.809017
vn -0.309017 0.000000 0.951057
vn -0.309017 0.000431 0.951056
vn 0.000000 0.000000 1.000000
vn 0.000000 0.000431 1.000000
vn 0.309017 0.000000 0.951057
vn 0.309017 0.000431 0.951056
vn 0.587785 0.000000 0.809017
vn 0.587785 0.000431 0.809017
vn 0.809017 0.000000 0.587785
vn 0.809017 0.000431 0.587785
vn 0.951057 0.000000 0.309017
vn 0.951056 0.000431 0.309017
vn 1.000000 0.000000 0.000001
vn 1.000000 0.000431 0.000001
vn 0.748442 0.617008 -0.243180
vn 0.786957 0.617007 0.000000
vn 0.748441 0.617007 0.243183
vn 0.636662 0.617007 0.462563
vn 0.462562 0.617007 0.636662
vn 0.243183 0.617007 0.748441
vn 0.000000 0.617008 0.786957
vn -0.243183 0.617008 0.748440
vn -0.462562 0.617007 0.636662
vn -0.636662 0.617008 0.462561
vn -0.748441 0.617007 0.243181
vn -0.786957 0.617007 0.000002
vn -0.748441 0.617007 -0.243183
vn -0.636662 0.617007 -0.462563
vn -0.462562 0.617007 -0.636662
vn -0.243183 0.617007 -0.748441
vn -0.000000 0.617009 -0.786956
vn 0.243184 0.617010 -0.748438
vn 0.462563 0.617009 -0.636660
vn 0.636663 0.617008 -0.462560
vn 0.655108 0.724933 -0.212852
vn 0.688821 0.724932 0.000000
vn 0.655107 0.724932 0.212856
vn 0.557267 0.724931 0.404882
vn 0.404878 0.724930 0.557270
vn 0.212858 0.724933 0.655105
vn -0.000000 0.724934 0.688818
vn -0.212857 0.724933 0.655106
vn -0.404877 0.724929 0.557273
vn -0.557267 0.724931 0.404882
vn -0.655108 0.724933 0.212852
vn -0.688821 0.724932 0.000000
vn -0.655108 0.724932 -0.212856
vn -0.557267 0.724931 -0.404882
vn -0.404878 0.724931 -0.557269
vn -0.212858 0.724933 -0.655106
vn -0.000000 0.724933 -0.688819
vn 0.212857 0.724933 -0.655106
vn 0.404878 0.724931 -0.557269
vn 0.557268 0.724932 -0.404878
s 1
g pCylinder2
usemtl initialShadingGroup
f 102/128/1 103/129/2 81/105/3 62/86/4
f 103/129/2 104/130/5 80/104/6 81/105/3
f 104/130/5 105/131/7 79/103/8 80/104/6
f 105/131/7 106/132/9 78/102/10 79/103/8
f 106/132/9 107/133/11 77/101/12 78/102/10
f 107/133/11 108/134/13 76/100/14 77/101/12
f 108/134/13 109/135/15 75/99/16 76/100/14
f 109/135/15 110/136/17 74/98/18 75/99/16
f 110/136/17 111/137/19 73/97/20 74/98/18
f 111/137/19 112/138/21 72/96/22 73/97/20
f 112/138/21 113/139/23 71/95/24 72/96/22
f 113/139/23 114/140/25 70/94/26 71/95/24
f 114/140/25 115/141/27 69/93/28 70/94/26
f 115/141/27 116/142/29 68/92/30 69/93/28
f 116/142/29 117/143/31 67/91/32 68/92/30
f 117/143/31 118/144/33 66/90/34 67/91/32
f 118/144/33 119/145/35 65/89/36 66/90/34
f 119/145/35 120/146/37 64/88/38 65/89/36
f 120/146/37 121/147/39 63/87/40 64/88/38
f 121/147/39 102/127/1 62/85/4 63/87/40
s 2
f 21/61/41 22/60/42 41/63/43
f 22/60/42 23/59/44 41/63/43
f 23/59/44 24/58/45 41/63/43
f 24/58/45 25/57/46 41/63/43
f 25/57/46 26/56/47 41/63/43
f 26/56/47 27/55/48 41/63/43
f 27/55/48 28/54/49 41/63/43
f 28/54/49 29/53/50 41/63/43
f 29/53/50 30/52/51 41/63/43
f 30/52/51 31/51/52 41/63/43
f 31/51/52 32/50/53 41/63/43
f 32/50/53 33/49/54 41/63/43
f 33/49/54 34/48/55 41/63/43
f 34/48/55 35/47/56 41/63/43
f 35/47/56 36/46/57 41/63/43
f 36/46/57 37/45/58 41/63/43
f 37/45/58 38/44/59 41/63/43
f 38/44/59 39/43/60 41/63/43
f 39/43/60 40/62/61 41/63/43
f 40/62/61 21/61/41 41/63/43
s 1
f 1/1/62 2/2/63 43/66/64 42/65/65
f 2/2/63 3/3/66 44/67/67 43/66/64
f 3/3/66 4/4/68 45/68/69 44/67/67
f 4/4/68 5/5/70 46/69/71 45/68/69
f 5/5/70 6/6/72 47/70/73 46/69/71
f 6/6/72 7/7/74 48/71/75 47/70/73
f 7/7/74 8/8/76 49/72/77 48/71/75
f 8/8/76 9/9/78 50/73/79 49/72/77
f 9/9/78 10/10/80 51/74/81 50/73/79
f 10/10/80 11/11/82 52/75/83 51/74/81
f 11/11/82 12/12/84 53/76/85 52/75/83
f 12/12/84 13/13/86 54/77/87 53/76/85
f 13/13/86 14/14/88 55/78/89 54/77/87
f 14/14/88 15/15/90 56/79/91 55/78/89
f 15/15/90 16/16/92 57/80/93 56/79/91
f 16/16/92 17/17/94 58/81/95 57/80/93
f 17/17/94 18/18/96 59/82/97 58/81/95
f 18/18/96 19/19/98 60/83/99 59/82/97
f 19/19/98 20/20/100 61/84/101 60/83/99
f 20/20/100 1/21/62 42/64/65 61/84/101
f 63/87/40 62/85/4 82/106/102 83/108/103
f 64/88/38 63/87/40 83/108/103 84/109/104
f 65/89/36 64/88/38 84/109/104 85/110/105
f 66/90/34 65/89/36 85/110/105 86/111/106
f 67/91/32 66/90/34 86/111/106 87/112/107
f 68/92/30 67/91/32 87/112/107 88/113/108
f 69/93/28 68/92/30 88/113/108 89/114/109
f 70/94/26 69/93/28 89/114/109 90/115/110
f 71/95/24 70/94/26 90/115/110 91/116/111
f 72/96/22 71/95/24 91/116/111 92/117/112
f 73/97/20 72/96/22 92/117/112 93/118/113
f 74/98/18 73/97/20 93/118/113 94/119/114
f 75/99/16 74/98/18 94/119/114 95/120/115
f 76/100/14 75/99/16 95/120/115 96/121/116
f 77/101/12 76/100/14 96/121/116 97/122/117
f 78/102/10 77/101/12 97/122/117 98/123/118
f 79/103/8 78/102/10 98/123/118 99/124/119
f 80/104/6 79/103/8 99/124/119 100/125/120
f 81/105/3 80/104/6 100/125/120 101/126/121
f 62/86/4 81/105/3 101/126/121 82/107/102
f 83/108/103 82/106/102 21/42/122 40/41/123
f 84/109/104 83/108/103 40/41/123 39/40/124
f 85/110/105 84/109/104 39/40/124 38/39/125
f 86/111/106 85/110/105 38/39/125 37/38/126
f 87/112/107 86/111/106 37/38/126 36/37/127
f 88/113/108 87/112/107 36/37/127 35/36/128
f 89/114/109 88/113/108 35/36/128 34/35/129
f 90/115/110 89/114/109 34/35/129 33/34/130
f 91/116/111 90/115/110 33/34/130 32/33/131
f 92/117/112 91/116/111 32/33/131 31/32/132
f 93/118/113 92/117/112 31/32/132 30/31/133
f 94/119/114 93/118/113 30/31/133 29/30/134
f 95/120/115 94/119/114 29/30/134 28/29/135
f 96/121/116 95/120/115 28/29/135 27/28/136
f 97/122/117 96/121/116 27/28/136 26/27/137
f 98/123/118 97/122/117 26/27/137 25/26/138
f 99/124/119 98/123/118 25/26/138 24/25/139
f 100/125/120 99/124/119 24/25/139 23/24/140
f 101/126/121 100/125/120 23/24/140 22/23/141
f 82/107/102 101/126/121 22/23/141 21/22/122
f 42/65/65 43/66/64 103/129/2 102/128/1
f 43/66/64 44/67/67 104/130/5 103/129/2
f 44/67/67 45/68/69 105/131/7 104/130/5
f 45/68/69 46/69/71 106/132/9 105/131/7
f 46/69/71 47/70/73 107/133/11 106/132/9
f 47/70/73 48/71/75 108/134/13 107/133/11
f 48/71/75 49/72/77 109/135/15 108/134/13
f 49/72/77 50/73/79 110/136/17 109/135/15
f 50/73/79 51/74/81 111/137/19 110/136/17
f 51/74/81 52/75/83 112/138/21 111/137/19
f 52/75/83 53/76/85 113/139/23 112/138/21
f 53/76/85 54/77/87 114/140/25 113/139/23
f 54/77/87 55/78/89 115/141/27 114/140/25
f 55/78/89 56/79/91 116/142/29 115/141/27
f 56/79/91 57/80/93 117/143/31 116/142/29
f 57/80/93 58/81/95 118/144/33 117/143/31
f 58/81/95 59/82/97 119/145/35 118/144/33
f 59/82/97 60/83/99 120/146/37 119/145/35
f 60/83/99 61/84/101 121/147/39 120/146/37
f 61/84/101 42/64/65 102/127/1 121/147/39
