# This file uses centimeters as units for non-parametric coordinates.

mtllib KendoGakko_Shinai_PROXY_v004.mtl
g default
v 0.028532 -0.705585 -0.009272
v 0.024271 -0.705585 -0.017635
v 0.017634 -0.705585 -0.024272
v 0.009271 -0.705585 -0.028533
v 0.000000 -0.705585 -0.030002
v -0.009270 -0.705585 -0.028533
v -0.017634 -0.705585 -0.024272
v -0.024271 -0.705585 -0.017635
v -0.028532 -0.705585 -0.009272
v -0.030000 -0.705585 -0.000002
v -0.028532 -0.705585 0.009269
v -0.024271 -0.705585 0.017632
v -0.017634 -0.705585 0.024269
v -0.009270 -0.705585 0.028530
v 0.000000 -0.705585 0.029998
v 0.009271 -0.705585 0.028530
v 0.017634 -0.705585 0.024269
v 0.024271 -0.705585 0.017632
v 0.028532 -0.705585 0.009269
v 0.030000 -0.705585 -0.000002
v 0.021908 0.705582 -0.007120
v 0.018636 0.705582 -0.013541
v 0.013540 0.705582 -0.018638
v 0.007118 0.705582 -0.021909
v 0.000000 0.705582 -0.023037
v -0.007118 0.705582 -0.021909
v -0.013540 0.705582 -0.018638
v -0.018636 0.705582 -0.013541
v -0.021908 0.705582 -0.007120
v -0.023035 0.705582 -0.000002
v -0.021908 0.705582 0.007117
v -0.018636 0.705582 0.013538
v -0.013540 0.705582 0.018634
v -0.007118 0.705582 0.021906
v 0.000000 0.705582 0.023034
v 0.007118 0.705582 0.021906
v 0.013540 0.705582 0.018634
v 0.018636 0.705582 0.013538
v 0.021908 0.705582 0.007117
v 0.023035 0.705582 -0.000002
v 0.000000 -0.705585 -0.000002
v 0.000000 0.705582 -0.000002
v 0.028532 -0.518417 -0.009272
v 0.024271 -0.518417 -0.017635
v 0.017634 -0.518417 -0.024272
v 0.009271 -0.518417 -0.028533
v 0.000000 -0.518417 -0.030002
v -0.009270 -0.518417 -0.028533
v -0.017634 -0.518417 -0.024272
v -0.024271 -0.518417 -0.017635
v -0.028532 -0.518417 -0.009272
v -0.030000 -0.518417 -0.000002
v -0.028532 -0.518417 0.009269
v -0.024271 -0.518417 0.017632
v -0.017634 -0.518417 0.024269
v -0.009270 -0.518417 0.028530
v 0.000000 -0.518417 0.029998
v 0.009271 -0.518417 0.028530
v 0.017634 -0.518417 0.024269
v 0.024271 -0.518417 0.017632
v 0.028532 -0.518417 0.009269
v 0.030000 -0.518417 -0.000002
v 0.042556 -0.282639 -0.013829
v 0.044746 -0.282639 -0.000002
v 0.042556 -0.282639 0.013826
v 0.036200 -0.282639 0.026299
v 0.026301 -0.282639 0.036199
v 0.013827 -0.282639 0.042554
v 0.000000 -0.282639 0.044744
v -0.013827 -0.282639 0.042554
v -0.026301 -0.282639 0.036199
v -0.036200 -0.282639 0.026299
v -0.042556 -0.282639 0.013826
v -0.044746 -0.282639 -0.000002
v -0.042556 -0.282639 -0.013829
v -0.036200 -0.282639 -0.026303
v -0.026301 -0.282639 -0.036202
v -0.013827 -0.282639 -0.042557
v 0.000000 -0.282639 -0.044747
v 0.013827 -0.282639 -0.042558
v 0.026301 -0.282639 -0.036202
v 0.036200 -0.282639 -0.026303
v 0.028532 -0.044601 -0.009272
v 0.030000 -0.044601 -0.000002
v 0.028532 -0.044601 0.009269
v 0.024271 -0.044601 0.017632
v 0.017634 -0.044601 0.024269
v 0.009271 -0.044601 0.028530
v 0.000000 -0.044601 0.029998
v -0.009270 -0.044601 0.028530
v -0.017634 -0.044601 0.024269
v -0.024271 -0.044601 0.017632
v -0.028532 -0.044601 0.009269
v -0.030000 -0.044601 -0.000002
v -0.028532 -0.044601 -0.009272
v -0.024271 -0.044601 -0.017635
v -0.017634 -0.044601 -0.024272
v -0.009270 -0.044601 -0.028533
v 0.000000 -0.044601 -0.030002
v 0.009271 -0.044601 -0.028533
v 0.017634 -0.044601 -0.024272
v 0.024271 -0.044601 -0.017635
v 0.103284 -0.513779 -0.033561
v 0.087858 -0.513779 -0.063835
v 0.063833 -0.513779 -0.087860
v 0.033559 -0.513779 -0.103286
v 0.000000 -0.513779 -0.108601
v -0.033559 -0.513779 -0.103286
v -0.063833 -0.513779 -0.087860
v -0.087858 -0.513779 -0.063835
v -0.103284 -0.513779 -0.033561
v -0.108599 -0.513779 -0.000002
v -0.103284 -0.513779 0.033557
v -0.087858 -0.513779 0.063831
v -0.063833 -0.513779 0.087857
v -0.033559 -0.513779 0.103282
v 0.000000 -0.513779 0.108598
v 0.033559 -0.513779 0.103282
v 0.063833 -0.513779 0.087857
v 0.087858 -0.513779 0.063831
v 0.103284 -0.513779 0.033557
v 0.108599 -0.513779 -0.000002
v 0.103284 -0.494415 -0.033561
v 0.087858 -0.494415 -0.063835
v 0.063833 -0.494415 -0.087860
v 0.033559 -0.494415 -0.103286
v 0.000000 -0.494415 -0.108601
v -0.033559 -0.494415 -0.103286
v -0.063833 -0.494415 -0.087860
v -0.087858 -0.494415 -0.063835
v -0.103284 -0.494415 -0.033561
v -0.108599 -0.494415 -0.000002
v -0.103284 -0.494415 0.033557
v -0.087858 -0.494415 0.063831
v -0.063833 -0.494415 0.087857
v -0.033559 -0.494415 0.103282
v 0.000000 -0.494415 0.108598
v 0.033559 -0.494415 0.103282
v 0.063833 -0.494415 0.087857
v 0.087858 -0.494415 0.063831
v 0.103284 -0.494415 0.033557
v 0.108599 -0.494415 -0.000002
v 0.000000 -0.513779 -0.000002
v 0.000000 -0.494415 -0.000002
vt 0.648603 0.107966
vt 0.626409 0.064408
vt 0.591842 0.029841
vt 0.548284 0.007647
vt 0.500000 -0.000000
vt 0.451716 0.007647
vt 0.408159 0.029841
vt 0.373591 0.064409
vt 0.351397 0.107966
vt 0.343750 0.156250
vt 0.351397 0.204534
vt 0.373591 0.248091
vt 0.408159 0.282659
vt 0.451716 0.304853
vt 0.500000 0.312500
vt 0.548284 0.304853
vt 0.591841 0.282659
vt 0.626409 0.248091
vt 0.648603 0.204534
vt 0.656250 0.156250
vt 0.375000 0.312500
vt 0.387500 0.312500
vt 0.400000 0.312500
vt 0.412500 0.312500
vt 0.425000 0.312500
vt 0.437500 0.312500
vt 0.450000 0.312500
vt 0.462500 0.312500
vt 0.475000 0.312500
vt 0.487500 0.312500
vt 0.500000 0.312500
vt 0.512500 0.312500
vt 0.525000 0.312500
vt 0.537500 0.312500
vt 0.550000 0.312500
vt 0.562500 0.312500
vt 0.575000 0.312500
vt 0.587500 0.312500
vt 0.600000 0.312500
vt 0.612500 0.312500
vt 0.625000 0.312500
vt 0.375000 0.688440
vt 0.387500 0.688440
vt 0.400000 0.688440
vt 0.412500 0.688440
vt 0.425000 0.688440
vt 0.437500 0.688440
vt 0.450000 0.688440
vt 0.462500 0.688440
vt 0.475000 0.688440
vt 0.487500 0.688440
vt 0.500000 0.688440
vt 0.512500 0.688440
vt 0.525000 0.688440
vt 0.537500 0.688440
vt 0.550000 0.688440
vt 0.562500 0.688440
vt 0.575000 0.688440
vt 0.587500 0.688440
vt 0.600000 0.688440
vt 0.612500 0.688440
vt 0.625000 0.688440
vt 0.648603 0.795466
vt 0.626409 0.751908
vt 0.591842 0.717341
vt 0.548284 0.695147
vt 0.500000 0.687500
vt 0.451716 0.695147
vt 0.408159 0.717341
vt 0.373591 0.751909
vt 0.351397 0.795466
vt 0.343750 0.843750
vt 0.351397 0.892034
vt 0.373591 0.935591
vt 0.408159 0.970159
vt 0.451716 0.992353
vt 0.500000 1.000000
vt 0.548284 0.992353
vt 0.591841 0.970159
vt 0.626409 0.935591
vt 0.648603 0.892034
vt 0.656250 0.843750
vt 0.500000 0.150000
vt 0.500000 0.837500
vt 0.625000 0.380839
vt 0.375000 0.380839
vt 0.387500 0.380839
vt 0.400000 0.380839
vt 0.412500 0.380839
vt 0.425000 0.380839
vt 0.437500 0.380839
vt 0.450000 0.380839
vt 0.462500 0.380839
vt 0.475000 0.380839
vt 0.487500 0.380839
vt 0.500000 0.380839
vt 0.512500 0.380839
vt 0.525000 0.380839
vt 0.537500 0.380839
vt 0.550000 0.380839
vt 0.562500 0.380839
vt 0.575000 0.380839
vt 0.587500 0.380839
vt 0.600000 0.380839
vt 0.612500 0.380839
vt 0.625000 0.442480
vt 0.375000 0.442480
vt 0.612500 0.442480
vt 0.600000 0.442480
vt 0.587500 0.442480
vt 0.575000 0.442480
vt 0.562500 0.442480
vt 0.550000 0.442480
vt 0.537500 0.442480
vt 0.525000 0.442480
vt 0.512500 0.442480
vt 0.500000 0.442480
vt 0.487500 0.442480
vt 0.475000 0.442480
vt 0.462500 0.442480
vt 0.450000 0.442480
vt 0.437500 0.442480
vt 0.425000 0.442480
vt 0.412500 0.442480
vt 0.400000 0.442480
vt 0.387500 0.442480
vt 0.625000 0.470662
vt 0.375000 0.470662
vt 0.612500 0.470662
vt 0.600000 0.470662
vt 0.587500 0.470662
vt 0.575000 0.470662
vt 0.562500 0.470662
vt 0.550000 0.470662
vt 0.537500 0.470662
vt 0.525000 0.470662
vt 0.512500 0.470662
vt 0.500000 0.470662
vt 0.487500 0.470662
vt 0.475000 0.470662
vt 0.462500 0.470662
vt 0.450000 0.470662
vt 0.437500 0.470662
vt 0.425000 0.470662
vt 0.412500 0.470662
vt 0.400000 0.470662
vt 0.387500 0.470662
vt 0.375000 0.312500
vt 0.387500 0.312500
vt 0.387500 0.688440
vt 0.375000 0.688440
vt 0.400000 0.312500
vt 0.400000 0.688440
vt 0.412500 0.312500
vt 0.412500 0.688440
vt 0.425000 0.312500
vt 0.425000 0.688440
vt 0.437500 0.312500
vt 0.437500 0.688440
vt 0.450000 0.312500
vt 0.450000 0.688440
vt 0.462500 0.312500
vt 0.462500 0.688440
vt 0.475000 0.312500
vt 0.475000 0.688440
vt 0.487500 0.312500
vt 0.487500 0.688440
vt 0.500000 0.312500
vt 0.500000 0.688440
vt 0.512500 0.312500
vt 0.512500 0.688440
vt 0.525000 0.312500
vt 0.525000 0.688440
vt 0.537500 0.312500
vt 0.537500 0.688440
vt 0.550000 0.312500
vt 0.550000 0.688440
vt 0.562500 0.312500
vt 0.562500 0.688440
vt 0.575000 0.312500
vt 0.575000 0.688440
vt 0.587500 0.312500
vt 0.587500 0.688440
vt 0.600000 0.312500
vt 0.600000 0.688440
vt 0.612500 0.312500
vt 0.612500 0.688440
vt 0.625000 0.312500
vt 0.625000 0.688440
vt 0.626409 0.064408
vt 0.648603 0.107966
vt 0.500000 0.150000
vt 0.591842 0.029841
vt 0.548284 0.007647
vt 0.500000 -0.000000
vt 0.451716 0.007647
vt 0.408159 0.029841
vt 0.373591 0.064409
vt 0.351397 0.107966
vt 0.343750 0.156250
vt 0.351397 0.204534
vt 0.373591 0.248091
vt 0.408159 0.282659
vt 0.451716 0.304853
vt 0.500000 0.312500
vt 0.548284 0.304853
vt 0.591841 0.282659
vt 0.626409 0.248091
vt 0.648603 0.204534
vt 0.656250 0.156250
vt 0.648603 0.892034
vt 0.626409 0.935591
vt 0.500000 0.837500
vt 0.591841 0.970159
vt 0.548284 0.992353
vt 0.500000 1.000000
vt 0.451716 0.992353
vt 0.408159 0.970159
vt 0.373591 0.935591
vt 0.351397 0.892034
vt 0.343750 0.843750
vt 0.351397 0.795466
vt 0.373591 0.751909
vt 0.408159 0.717341
vt 0.451716 0.695147
vt 0.500000 0.687500
vt 0.548284 0.695147
vt 0.591842 0.717341
vt 0.626409 0.751908
vt 0.648603 0.795466
vt 0.656250 0.843750
vn 0.950361 -0.038263 -0.308788
vn 0.808423 -0.038263 -0.587357
vn 0.809016 0.000002 -0.587787
vn 0.951057 0.000002 -0.309015
vn 0.587358 -0.038263 -0.808422
vn 0.587789 0.000002 -0.809014
vn 0.308789 -0.038264 -0.950361
vn 0.309015 0.000002 -0.951057
vn -0.000006 -0.038263 -0.999268
vn -0.000010 0.000002 -1.000000
vn -0.308788 -0.038263 -0.950361
vn -0.309015 0.000002 -0.951057
vn -0.587355 -0.038263 -0.808425
vn -0.587784 0.000002 -0.809018
vn -0.808423 -0.038263 -0.587357
vn -0.809016 0.000002 -0.587787
vn -0.950360 -0.038263 -0.308791
vn -0.951056 0.000002 -0.309019
vn -0.999268 -0.038263 -0.000000
vn -1.000000 0.000002 0.000000
vn -0.950360 -0.038263 0.308792
vn -0.951056 0.000002 0.309020
vn -0.808423 -0.038263 0.587356
vn -0.809017 0.000002 0.587785
vn -0.587359 -0.038264 0.808422
vn -0.587791 0.000002 0.809013
vn -0.308786 -0.038264 0.950362
vn -0.309010 0.000002 0.951059
vn -0.000000 -0.038263 0.999268
vn -0.000000 0.000002 1.000000
vn 0.308786 -0.038264 0.950362
vn 0.309011 0.000002 0.951059
vn 0.587360 -0.038264 0.808421
vn 0.587791 0.000002 0.809013
vn 0.808423 -0.038263 0.587356
vn 0.809017 0.000002 0.587785
vn 0.950360 -0.038263 0.308792
vn 0.951056 0.000002 0.309020
vn 0.999268 -0.038263 -0.000000
vn 1.000000 0.000002 -0.000000
vn 0.000000 -1.000000 -0.000003
vn 0.000000 -1.000000 0.000000
vn 0.000000 -1.000000 -0.000000
vn 0.000000 -1.000000 0.000000
vn 0.000000 -1.000000 0.000003
vn 0.000000 -1.000000 0.000000
vn 0.000000 -1.000000 -0.000003
vn 0.000000 -1.000000 -0.000003
vn 0.000000 -1.000000 0.000000
vn 0.000000 -1.000000 0.000000
vn 0.000000 -1.000000 0.000000
vn 0.000000 -1.000000 0.000000
vn 0.000000 -1.000000 0.000000
vn 0.000000 -1.000000 0.000003
vn 0.000000 -1.000000 0.000003
vn 0.000000 -1.000000 -0.000001
vn 0.000000 -1.000000 -0.000003
vn 0.000000 -1.000000 -0.000003
vn 0.000000 -1.000000 0.000000
vn 0.000000 -1.000000 0.000000
vn 0.000000 -1.000000 0.000000
vn 0.000000 1.000000 0.000000
vn 0.000000 1.000000 0.000006
vn 0.000000 1.000000 0.000001
vn 0.000000 1.000000 0.000006
vn 0.000000 1.000000 0.000000
vn 0.000000 1.000000 0.000001
vn 0.000000 1.000000 0.000003
vn 0.000000 1.000000 -0.000003
vn 0.000000 1.000000 -0.000006
vn 0.000000 1.000000 0.000000
vn 0.000000 1.000000 0.000000
vn 0.000000 1.000000 0.000000
vn 0.000000 1.000000 0.000006
vn 0.000000 1.000000 0.000006
vn 0.000000 1.000000 0.000000
vn 0.000000 1.000000 0.000001
vn 0.000000 1.000000 0.000004
vn 0.000000 1.000000 -0.000003
vn 0.000000 1.000000 -0.000006
vn 0.000000 1.000000 0.000000
vn 0.000000 1.000000 0.000000
vn 0.951058 0.000000 -0.309014
vn 0.809015 0.000000 -0.587788
vn 0.587789 0.000000 -0.809014
vn 0.309015 0.000000 -0.951057
vn -0.000000 0.000000 -1.000000
vn -0.309014 0.000000 -0.951057
vn -0.587787 0.000000 -0.809016
vn -0.809015 0.000000 -0.587788
vn -0.951058 0.000000 -0.309014
vn -1.000000 0.000000 0.000000
vn -0.951057 0.000000 0.309015
vn -0.809014 0.000000 0.587789
vn -0.587787 0.000000 0.809016
vn -0.309014 0.000000 0.951057
vn -0.000000 0.000000 1.000000
vn 0.309015 0.000000 0.951057
vn 0.587789 0.000000 0.809014
vn 0.809014 0.000000 0.587789
vn 0.951057 0.000000 0.309015
vn 1.000000 0.000000 0.000000
vn 0.950745 0.025629 -0.308913
vn 0.999672 0.025629 -0.000000
vn 0.950745 0.025629 0.308914
vn 0.808748 0.025628 0.587596
vn 0.587597 0.025629 0.808748
vn 0.308912 0.025629 0.950745
vn -0.000000 0.025629 0.999672
vn -0.308911 0.025629 0.950745
vn -0.587595 0.025629 0.808749
vn -0.808751 0.025629 0.587593
vn -0.950745 0.025629 0.308914
vn -0.999672 0.025629 -0.000000
vn -0.950745 0.025629 -0.308914
vn -0.808751 0.025629 -0.587593
vn -0.587591 0.025628 -0.808752
vn -0.308913 0.025628 -0.950745
vn -0.000003 0.025629 -0.999672
vn 0.308913 0.025629 -0.950745
vn 0.587594 0.025629 -0.808750
vn 0.808750 0.025629 -0.587594
vn 0.951017 0.009284 -0.309000
vn 0.999957 0.009284 0.000000
vn 0.951017 0.009284 0.309000
vn 0.808978 0.009284 0.587766
vn 0.587764 0.009284 0.808980
vn 0.309001 0.009284 0.951016
vn -0.000000 0.009284 0.999957
vn -0.309001 0.009284 0.951017
vn -0.587762 0.009284 0.808981
vn -0.808981 0.009284 0.587761
vn -0.951017 0.009284 0.309000
vn -0.999957 0.009284 -0.000000
vn -0.951017 0.009284 -0.309000
vn -0.808983 0.009284 -0.587759
vn -0.587759 0.009284 -0.808983
vn -0.309001 0.009284 -0.951016
vn 0.000000 0.009284 -0.999957
vn 0.309000 0.009284 -0.951017
vn 0.587761 0.009284 -0.808981
vn 0.808981 0.009284 -0.587762
vn 0.951057 0.000000 -0.309016
vn 0.809016 0.000000 -0.587787
vn 0.809016 0.000000 -0.587787
vn 0.951057 0.000000 -0.309016
vn 0.587790 0.000000 -0.809013
vn 0.587790 0.000000 -0.809013
vn 0.309017 0.000000 -0.951057
vn 0.309017 0.000000 -0.951057
vn 0.000000 0.000000 -1.000000
vn 0.000000 0.000000 -1.000000
vn -0.309016 0.000000 -0.951057
vn -0.309016 0.000000 -0.951057
vn -0.587789 0.000000 -0.809015
vn -0.587789 0.000000 -0.809015
vn -0.809016 0.000000 -0.587787
vn -0.809016 0.000000 -0.587787
vn -0.951057 0.000000 -0.309016
vn -0.951057 0.000000 -0.309016
vn -1.000000 0.000000 0.000000
vn -1.000000 0.000000 0.000000
vn -0.951057 0.000000 0.309016
vn -0.951057 0.000000 0.309016
vn -0.809017 0.000000 0.587785
vn -0.809017 0.000000 0.587785
vn -0.587784 0.000000 0.809018
vn -0.587784 0.000000 0.809018
vn -0.309017 0.000000 0.951057
vn -0.309017 0.000000 0.951057
vn 0.000000 0.000000 1.000000
vn 0.000000 0.000000 1.000000
vn 0.309017 0.000000 0.951057
vn 0.309017 0.000000 0.951057
vn 0.587784 0.000000 0.809018
vn 0.587784 0.000000 0.809018
vn 0.809017 0.000000 0.587785
vn 0.809017 0.000000 0.587785
vn 0.951057 0.000000 0.309016
vn 0.951057 0.000000 0.309016
vn 1.000000 0.000000 0.000000
vn 1.000000 0.000000 0.000000
vn 0.000000 -1.000000 -0.000001
vn 0.000000 -1.000000 0.000000
vn 0.000000 -1.000000 0.000000
vn 0.000000 -1.000000 -0.000001
vn 0.000000 -1.000000 0.000001
vn 0.000000 -1.000000 0.000000
vn 0.000000 -1.000000 0.000000
vn 0.000000 -1.000000 0.000000
vn 0.000000 -1.000000 0.000000
vn 0.000000 -1.000000 0.000000
vn 0.000000 -1.000000 0.000000
vn 0.000000 -1.000000 0.000000
vn 0.000000 -1.000000 0.000000
vn 0.000000 -1.000000 0.000000
vn 0.000000 -1.000000 0.000001
vn 0.000000 -1.000000 0.000001
vn 0.000000 -1.000000 0.000000
vn 0.000000 -1.000000 0.000000
vn 0.000000 -1.000000 0.000000
vn 0.000000 -1.000000 0.000000
vn 0.000000 -1.000000 0.000000
vn 0.000000 1.000000 -0.000000
vn 0.000000 1.000000 -0.000000
vn 0.000000 1.000000 0.000000
vn 0.000000 1.000000 0.000001
vn 0.000000 1.000000 0.000000
vn 0.000000 1.000000 0.000000
vn 0.000000 1.000000 0.000001
vn 0.000000 1.000000 0.000001
vn 0.000000 1.000000 -0.000001
vn 0.000000 1.000000 -0.000000
vn 0.000000 1.000000 -0.000000
vn 0.000000 1.000000 0.000000
vn 0.000000 1.000000 -0.000000
vn 0.000000 1.000000 -0.000001
vn 0.000000 1.000000 0.000000
vn 0.000000 1.000000 0.000000
vn 0.000000 1.000000 -0.000000
vn 0.000000 1.000000 -0.000001
vn 0.000000 1.000000 0.000001
vn 0.000000 1.000000 0.000000
vn 0.000000 1.000000 -0.000000
s 1
g shinai_geo
usemtl initialShadingGroup
f 43/86/1 44/87/2 82/126/3 63/107/4
f 44/87/2 45/88/5 81/125/6 82/126/3
f 45/88/5 46/89/7 80/124/8 81/125/6
f 46/89/7 47/90/9 79/123/10 80/124/8
f 47/90/9 48/91/11 78/122/12 79/123/10
f 48/91/11 49/92/13 77/121/14 78/122/12
f 49/92/13 50/93/15 76/120/16 77/121/14
f 50/93/15 51/94/17 75/119/18 76/120/16
f 51/94/17 52/95/19 74/118/20 75/119/18
f 52/95/19 53/96/21 73/117/22 74/118/20
f 53/96/21 54/97/23 72/116/24 73/117/22
f 54/97/23 55/98/25 71/115/26 72/116/24
f 55/98/25 56/99/27 70/114/28 71/115/26
f 56/99/27 57/100/29 69/113/30 70/114/28
f 57/100/29 58/101/31 68/112/32 69/113/30
f 58/101/31 59/102/33 67/111/34 68/112/32
f 59/102/33 60/103/35 66/110/36 67/111/34
f 60/103/35 61/104/37 65/109/38 66/110/36
f 61/104/37 62/105/39 64/108/40 65/109/38
f 62/105/39 43/85/1 63/106/4 64/108/40
s 2
f 2/2/41 1/1/42 41/83/43
f 3/3/44 2/2/41 41/83/43
f 4/4/45 3/3/44 41/83/43
f 5/5/46 4/4/45 41/83/43
f 6/6/47 5/5/46 41/83/43
f 7/7/48 6/6/47 41/83/43
f 8/8/49 7/7/48 41/83/43
f 9/9/50 8/8/49 41/83/43
f 10/10/51 9/9/50 41/83/43
f 11/11/52 10/10/51 41/83/43
f 12/12/53 11/11/52 41/83/43
f 13/13/54 12/12/53 41/83/43
f 14/14/55 13/13/54 41/83/43
f 15/15/56 14/14/55 41/83/43
f 16/16/57 15/15/56 41/83/43
f 17/17/58 16/16/57 41/83/43
f 18/18/59 17/17/58 41/83/43
f 19/19/60 18/18/59 41/83/43
f 20/20/61 19/19/60 41/83/43
f 1/1/42 20/20/61 41/83/43
s 3
f 21/81/62 22/80/63 42/84/64
f 22/80/63 23/79/65 42/84/64
f 23/79/65 24/78/66 42/84/64
f 24/78/66 25/77/67 42/84/64
f 25/77/67 26/76/68 42/84/64
f 26/76/68 27/75/69 42/84/64
f 27/75/69 28/74/70 42/84/64
f 28/74/70 29/73/71 42/84/64
f 29/73/71 30/72/72 42/84/64
f 30/72/72 31/71/73 42/84/64
f 31/71/73 32/70/74 42/84/64
f 32/70/74 33/69/75 42/84/64
f 33/69/75 34/68/76 42/84/64
f 34/68/76 35/67/77 42/84/64
f 35/67/77 36/66/78 42/84/64
f 36/66/78 37/65/79 42/84/64
f 37/65/79 38/64/80 42/84/64
f 38/64/80 39/63/81 42/84/64
f 39/63/81 40/82/82 42/84/64
f 40/82/82 21/81/62 42/84/64
s 1
f 1/21/83 2/22/84 44/87/2 43/86/1
f 2/22/84 3/23/85 45/88/5 44/87/2
f 3/23/85 4/24/86 46/89/7 45/88/5
f 4/24/86 5/25/87 47/90/9 46/89/7
f 5/25/87 6/26/88 48/91/11 47/90/9
f 6/26/88 7/27/89 49/92/13 48/91/11
f 7/27/89 8/28/90 50/93/15 49/92/13
f 8/28/90 9/29/91 51/94/17 50/93/15
f 9/29/91 10/30/92 52/95/19 51/94/17
f 10/30/92 11/31/93 53/96/21 52/95/19
f 11/31/93 12/32/94 54/97/23 53/96/21
f 12/32/94 13/33/95 55/98/25 54/97/23
f 13/33/95 14/34/96 56/99/27 55/98/25
f 14/34/96 15/35/97 57/100/29 56/99/27
f 15/35/97 16/36/98 58/101/31 57/100/29
f 16/36/98 17/37/99 59/102/33 58/101/31
f 17/37/99 18/38/100 60/103/35 59/102/33
f 18/38/100 19/39/101 61/104/37 60/103/35
f 19/39/101 20/40/102 62/105/39 61/104/37
f 20/40/102 1/41/83 43/85/1 62/105/39
f 64/108/40 63/106/4 83/127/103 84/129/104
f 65/109/38 64/108/40 84/129/104 85/130/105
f 66/110/36 65/109/38 85/130/105 86/131/106
f 67/111/34 66/110/36 86/131/106 87/132/107
f 68/112/32 67/111/34 87/132/107 88/133/108
f 69/113/30 68/112/32 88/133/108 89/134/109
f 70/114/28 69/113/30 89/134/109 90/135/110
f 71/115/26 70/114/28 90/135/110 91/136/111
f 72/116/24 71/115/26 91/136/111 92/137/112
f 73/117/22 72/116/24 92/137/112 93/138/113
f 74/118/20 73/117/22 93/138/113 94/139/114
f 75/119/18 74/118/20 94/139/114 95/140/115
f 76/120/16 75/119/18 95/140/115 96/141/116
f 77/121/14 76/120/16 96/141/116 97/142/117
f 78/122/12 77/121/14 97/142/117 98/143/118
f 79/123/10 78/122/12 98/143/118 99/144/119
f 80/124/8 79/123/10 99/144/119 100/145/120
f 81/125/6 80/124/8 100/145/120 101/146/121
f 82/126/3 81/125/6 101/146/121 102/147/122
f 63/107/4 82/126/3 102/147/122 83/128/103
f 84/129/104 83/127/103 21/62/123 40/61/124
f 85/130/105 84/129/104 40/61/124 39/60/125
f 86/131/106 85/130/105 39/60/125 38/59/126
f 87/132/107 86/131/106 38/59/126 37/58/127
f 88/133/108 87/132/107 37/58/127 36/57/128
f 89/134/109 88/133/108 36/57/128 35/56/129
f 90/135/110 89/134/109 35/56/129 34/55/130
f 91/136/111 90/135/110 34/55/130 33/54/131
f 92/137/112 91/136/111 33/54/131 32/53/132
f 93/138/113 92/137/112 32/53/132 31/52/133
f 94/139/114 93/138/113 31/52/133 30/51/134
f 95/140/115 94/139/114 30/51/134 29/50/135
f 96/141/116 95/140/115 29/50/135 28/49/136
f 97/142/117 96/141/116 28/49/136 27/48/137
f 98/143/118 97/142/117 27/48/137 26/47/138
f 99/144/119 98/143/118 26/47/138 25/46/139
f 100/145/120 99/144/119 25/46/139 24/45/140
f 101/146/121 100/145/120 24/45/140 23/44/141
f 102/147/122 101/146/121 23/44/141 22/43/142
f 83/128/103 102/147/122 22/43/142 21/42/123
s 4
f 103/148/143 104/149/144 124/150/145 123/151/146
f 104/149/144 105/152/147 125/153/148 124/150/145
f 105/152/147 106/154/149 126/155/150 125/153/148
f 106/154/149 107/156/151 127/157/152 126/155/150
f 107/156/151 108/158/153 128/159/154 127/157/152
f 108/158/153 109/160/155 129/161/156 128/159/154
f 109/160/155 110/162/157 130/163/158 129/161/156
f 110/162/157 111/164/159 131/165/160 130/163/158
f 111/164/159 112/166/161 132/167/162 131/165/160
f 112/166/161 113/168/163 133/169/164 132/167/162
f 113/168/163 114/170/165 134/171/166 133/169/164
f 114/170/165 115/172/167 135/173/168 134/171/166
f 115/172/167 116/174/169 136/175/170 135/173/168
f 116/174/169 117/176/171 137/177/172 136/175/170
f 117/176/171 118/178/173 138/179/174 137/177/172
f 118/178/173 119/180/175 139/181/176 138/179/174
f 119/180/175 120/182/177 140/183/178 139/181/176
f 120/182/177 121/184/179 141/185/180 140/183/178
f 121/184/179 122/186/181 142/187/182 141/185/180
f 122/186/181 103/188/143 123/189/146 142/187/182
s 5
f 104/190/183 103/191/184 143/192/185
f 105/193/186 104/190/183 143/192/185
f 106/194/187 105/193/186 143/192/185
f 107/195/188 106/194/187 143/192/185
f 108/196/189 107/195/188 143/192/185
f 109/197/190 108/196/189 143/192/185
f 110/198/191 109/197/190 143/192/185
f 111/199/192 110/198/191 143/192/185
f 112/200/193 111/199/192 143/192/185
f 113/201/194 112/200/193 143/192/185
f 114/202/195 113/201/194 143/192/185
f 115/203/196 114/202/195 143/192/185
f 116/204/197 115/203/196 143/192/185
f 117/205/198 116/204/197 143/192/185
f 118/206/199 117/205/198 143/192/185
f 119/207/200 118/206/199 143/192/185
f 120/208/201 119/207/200 143/192/185
f 121/209/202 120/208/201 143/192/185
f 122/210/203 121/209/202 143/192/185
f 103/191/184 122/210/203 143/192/185
s 6
f 123/211/204 124/212/205 144/213/206
f 124/212/205 125/214/207 144/213/206
f 125/214/207 126/215/208 144/213/206
f 126/215/208 127/216/209 144/213/206
f 127/216/209 128/217/210 144/213/206
f 128/217/210 129/218/211 144/213/206
f 129/218/211 130/219/212 144/213/206
f 130/219/212 131/220/213 144/213/206
f 131/220/213 132/221/214 144/213/206
f 132/221/214 133/222/215 144/213/206
f 133/222/215 134/223/216 144/213/206
f 134/223/216 135/224/217 144/213/206
f 135/224/217 136/225/218 144/213/206
f 136/225/218 137/226/219 144/213/206
f 137/226/219 138/227/220 144/213/206
f 138/227/220 139/228/221 144/213/206
f 139/228/221 140/229/222 144/213/206
f 140/229/222 141/230/223 144/213/206
f 141/230/223 142/231/224 144/213/206
f 142/231/224 123/211/204 144/213/206
